<?xml version="1.0" encoding="iso-8859-1"?>
<svg xmlns="http://www.w3.org/2000/svg" xmlns:xlink="http://www.w3.org/1999/xlink" version="1.1" id="Capa_1"  viewBox="0 0 455 455" xml:space="preserve" width="512" height="512">
<g>
	<polygon style="fill:#972041;" points="455,175 227.5,405 0,175  "/>
	<polygon style="fill:#FFF1CF;" points="355,0 375,212.27 227.5,347.55 70,189.86 70,0  "/>
	<polygon style="fill:#FFE29E;" points="355,0 355,212.27 227.5,307.55 70,189.86 70,365 355,365 385,365 385,0  "/>
	<polygon style="fill:#E43349;" points="455,175 455,455 361.685,446.795 425,197.42  "/>
	<polygon style="fill:#FF3B3B;" points="425,197.42 425,452.36 227.5,435 0,455 0,175 187.35,315 227.5,365 267.65,315  "/>
	<polygon style="fill:#FF3B3B;" points="455,455 425,455 405,443.79 425,432.58  "/>
	<polygon style="fill:#FF6761;" points="425,432.58 425,455 0,455 187.35,315 227.5,345 267.65,315  "/>
	<path style="fill:#E44670;" d="M265.95,87.25c-1.79,0-3.55,0.11-5.28,0.32l-33.14,150.15c2.5-1.38,82.44-45.77,82.44-106.45   C309.97,106.96,290.26,87.25,265.95,87.25z"/>
	<path style="fill:#FF6288;" d="M260.67,87.57c16.51,2.64,29.3,21.2,29.3,43.7c0,60.53-60.27,104.86-62.44,106.45   c-0.04,0.02-0.06,0.03-0.06,0.03s-82.5-44.84-82.5-106.48c0-24.31,19.7-44.02,44.01-44.02c16.58,0,30.98,9.18,38.49,22.71   C234.16,97.89,246.35,89.28,260.67,87.57z"/>
</g>
</svg>